<svg viewBox="0 0 55 16" version="1.1" xmlns="http://www.w3.org/2000/svg" xmlns:xlink="http://www.w3.org/1999/xlink" width="55px" height="16px">
    <!-- Generator: Sketch 52.6 (67491) - http://www.bohemiancoding.com/sketch -->
    <title>cartier</title>
    <desc>Created with Sketch.</desc>
    <g id="cartier" stroke="none" stroke-width="1" fill="none" fill-rule="evenodd" fill-color-id="-1" stroke-color-id="-1" recolor-fill="true" recolor-stroke="true">
        <g fill="#000000" fill-color-id="0" stroke-color-id="-1" recolor-fill="true" recolor-stroke="true">
            <path d="M37.628,6.573 C37.911,6.782 38.325,6.705 38.558,6.402 C38.794,6.091 38.76,5.672 38.482,5.453 C38.208,5.249 37.794,5.328 37.551,5.643 C37.326,5.94 37.359,6.36 37.628,6.573 Z" id="Shape" fill-rule="nonzero" fill-color-id="0" stroke-color-id="-1" recolor-fill="true" recolor-stroke="true" fill="#000000"/>
            <path d="M9.626,13.142 C9.626,13.142 9.999,12.473 10.158,12.229 C13.257,7.38 16.366,7.92 16.366,7.92 C17.806,8.023 17.714,9.078 17.714,9.078 C17.691,9.368 17.828,9.306 17.828,9.306 L18.379,8.319 L19.803,8.376 L16.841,13.806 C16.841,13.806 15.951,15.241 16.784,15.495 C16.784,15.495 18.373,15.835 21.681,11.889 L23.903,8.414 L25.251,8.414 L24.928,9.003 C24.848,9.198 25.023,9.136 25.023,9.136 C25.023,9.136 26.481,8.238 27.32,8.396 C27.32,8.396 28.207,8.453 28.098,9.497 C28.08,9.972 27.876,10.216 27.794,10.275 C27.794,10.275 29.029,9.97 31.04,7.732 L32.768,5.017 L34.192,5.017 L32.294,8.073 L33.983,8.073 L33.87,8.32 L32.142,8.32 L28.649,13.902 C28.649,13.902 27.896,15.082 28.838,15.269 C28.838,15.269 29.843,15.486 30.813,14.738 C30.813,14.738 33.786,12.268 35.028,10.542 L36.281,8.435 L37.61,8.435 L34.458,14.168 C34.458,14.168 33.864,15.391 35.009,15.44 C35.009,15.44 36.494,15.588 38.522,12.63 C38.522,12.63 40.646,8.691 43.685,8.073 C43.685,8.073 45.961,7.579 45.754,9.478 C45.754,9.478 45.516,12.671 40.173,12.914 C40.173,12.914 39.163,15.093 40.875,15.287 C40.875,15.287 43.482,15.983 48.867,10.142 L49.874,8.51 L51.449,8.51 L50.424,10.275 C50.408,10.444 50.576,10.313 50.576,10.313 C52.932,8.041 54.05,8.51 54.05,8.51 C54.826,8.798 54.658,9.516 54.658,9.516 C54.687,9.582 54.613,10.417 54.031,10.446 C53.674,10.45 53.382,10.124 53.385,9.744 C53.383,9.352 53.675,9.039 54.031,9.042 C54.146112,9.03786436 54.2594569,9.07120109 54.354,9.137 L54.373,9.137 C54.373,9.137 54.118,8.436 53.006,8.871 C53.006,8.871 51.069,9.771 49.475,11.927 L47.216,15.819 L45.507,15.819 L48.26,11.187 C43.697,16.57 39.831,15.952 39.831,15.952 C37.679,15.712 38.274,13.465 38.274,13.465 C35.726,16.775 33.641,15.762 33.641,15.762 C32.291,15.127 33.148,13.731 33.148,13.731 L34.154,12.023 C31.517,14.978 30.149,15.516 30.149,15.516 C28.641,16.232 27.453,15.554 27.453,15.554 C26.383,14.913 27.453,13.428 27.453,13.428 L30.453,8.663 C28.418,10.798 27.534,10.592 27.472,10.58 C27.48,10.574 27.483,10.574 27.472,10.58 C27.084,10.573 26.722,10.229 26.713,9.801 C26.722,9.379 27.035,9.035 27.415,9.042 C27.5276753,9.03641147 27.6396383,9.06275572 27.738,9.118 C27.667,8.535 27.054,8.643 27.054,8.643 C25.345,9.014 24.283,10.181 24.283,10.181 L21.245,15.743 L19.65,15.743 L21.15,13.066 C21.15,13.066 18.67,16.032 16.746,15.837 C16.746,15.837 14.814,15.883 15.189,14.109 C15.189,14.109 12.712,16.131 10.974,15.78 C10.974,15.78 9.16,15.62 9.55,13.692 C7.756,15.302 5.089,15.723 5.089,15.723 C0.707,16.674 0.115,13.141 0.115,13.141 C-0.809,7.875 4.14,3.326 4.14,3.326 C10.166,-2.145 14.182,0.782 14.182,0.782 C14.748,1.317 16.271,0.593 16.271,0.593 L14.22,3.517 C14.22,3.517 14.649,1.019 13.025,0.498 C13.025,0.498 8.288,-0.727 4.786,4.048 C4.786,4.048 1.264,8.32 1.766,13.009 C1.766,13.009 2.057,15.812 5.031,15.363 C5.031,15.363 7.768,14.978 9.626,13.142 Z M40.59,12.154 C40.59,12.154 40.401,12.448 40.724,12.496 C40.724,12.496 43.761,12.349 44.748,9.686 C44.748,9.686 45.169,8.419 44.273,8.243 C44.273,8.243 42.524,8.072 40.59,12.154 Z M11.601,15.211 C11.601,15.211 13.331,15.687 15.778,12.97 L17.012,10.882 C17.012,10.882 18.003,9.259 17.164,8.547 C17.164,8.547 16.174,7.776 14.373,9.382 C14.373,9.382 12.12,11.162 11.202,13.407 C11.202,13.407 10.661,15.019 11.601,15.211 Z" id="Combined-Shape" fill-color-id="0" stroke-color-id="-1" recolor-fill="true" recolor-stroke="true" fill="#000000"/>
        </g>
    </g>
</svg>